<svg xmlns="http://www.w3.org/2000/svg" viewBox="0 0 512 512" role="img" aria-label="CAMPUSXCHANGE logo">
  <rect width="512" height="512" rx="96" fill="#005434"/>
  <path
    d="M140 181c31-42 75-64 132-64 70 0 126 31 163 94l-47 28c-25-43-63-64-116-64-39 0-69 14-91 42l-41-36Zm0 150c31 42 75 64 132 64 70 0 126-31 163-94l-47-28c-25 43-63 64-116 64-39 0-69-14-91-42l-41 36Z"
    fill="#fffaf5"
  />
  <path
    d="M372 181c-31-42-75-64-132-64-70 0-126 31-163 94l47 28c25-43 63-64 116-64 39 0 69 14 91 42l41-36Zm0 150c-31 42-75 64-132 64-70 0-126-31-163-94l47-28c25 43 63 64 116 64 39 0 69-14 91-42l41 36Z"
    fill="#fffaf5"
  />
</svg>
